# xmcd
#
# Track frame offsets:
#	225
#	21204
#	40170
#	60795
#	80231
#	101920
#	126584
#	145327
#	170884
#	191373
#	225683
#	245199
#	261835
#	277286
#	298544
#	318199
#
# Disc length: 4487 seconds
#
# Revision: 1
# Processed by: cddbd v1.5.1PL0 Copyright (c) Steve Scherf et al.
# Submitted via: EasyCDDAExtractor 7.0.0.1
#
DISCID=fa118410
DTITLE=Celine Dion - Best Ballads
DYEAR=1900
DGENRE=Blues
TTITLE0=Think Twice 
TTITLE1=Pour Que Tu M'Aimes Encore 
TTITLE2=Because You Loved Me 
TTITLE3=Falling Into You 
TTITLE4=Only One Road 
TTITLE5=I Love You 
TTITLE6=Love Doesn't Ask Why 
TTITLE7=The Power Of Love 
TTITLE8=Je Sais Pas 
TTITLE9=It's All Coming Back To Me Now 
TTITLE10=No Living Wothout Loving You 
TTITLE11=You Make Me Fill Like A Natural Woman 
TTITLE12=The Colour Of My Love 
TTITLE13=Call The Man 
TTITLE14=When I Fall In Love 
TTITLE15=Beauty And The Beast 
EXTD=
EXTT0=
EXTT1=
EXTT2=
EXTT3=
EXTT4=
EXTT5=
EXTT6=
EXTT7=
EXTT8=
EXTT9=
EXTT10=
EXTT11=
EXTT12=
EXTT13=
EXTT14=
EXTT15=
PLAYORDER=
